# xmcd CD database file
#
# Track frame offsets:
#	187
#	16792
#	30585
#	49505
#	67247
#	88195
#	103530
#	120687
#	140265
#	160065
#
# Disc length: 2361 seconds
#
# Revision: 1
# Processed by: cddbd v1.5PL3 Copyright (c) Steve Scherf et al.
# Submitted via: CDex 1.50Beta3
#
DISCID=7b09370a
DTITLE=野沢直子 - ふかづめ
DYEAR=1989
DGENRE=JPop
TTITLE0=平成元年
TTITLE1=だけどもうついけん
TTITLE2=牛乳マンボ
TTITLE3=右往左往
TTITLE4=ミッキーオ・ナ・リータの血はみどり
TTITLE5=〜NHKみんなの歌〜こたつむすめでテケテケテ
TTITLE6=ドトウの軍団
TTITLE7=今でもあなたが (挿入歌1「高島屋CM.ローズギフト編])(挿入歌2「日立の木」)
TTITLE8=若者たち 
TTITLE9=モンキーダンス一家
EXTD=YEAR: 1989/03/21
EXTT0=
EXTT1=
EXTT2=
EXTT3=
EXTT4=
EXTT5=
EXTT6=
EXTT7=
EXTT8=
EXTT9=
PLAYORDER=
